<svg xmlns="http://www.w3.org/2000/svg" width="19" height="19" viewBox="0 0 19 19" fill="currentColor">
  <path d="M8.94071 16.1215C9.08917 16.2699 9.2905 16.3533 9.50042 16.3533C9.71034 16.3533 9.91167 16.2699 10.0601 16.1215L14.5386 11.643C14.6142 11.57 14.6745 11.4826 14.716 11.3861C14.7575 11.2895 14.7793 11.1856 14.7802 11.0805C14.7812 10.9753 14.7611 10.8711 14.7213 10.7738C14.6815 10.6765 14.6227 10.5881 14.5484 10.5138C14.4741 10.4395 14.3857 10.3807 14.2884 10.3409C14.1911 10.3011 14.0868 10.281 13.9817 10.282C13.8766 10.2829 13.7727 10.3047 13.6761 10.3462C13.5796 10.3877 13.4922 10.448 13.4192 10.5236L10.2921 13.6507L10.2921 3.16665C10.2921 2.95669 10.2087 2.75532 10.0602 2.60686C9.91175 2.45839 9.71039 2.37498 9.50042 2.37498C9.29046 2.37498 9.0891 2.45839 8.94063 2.60686C8.79216 2.75532 8.70876 2.95669 8.70876 3.16665L8.70876 13.6507L5.58167 10.5236C5.43236 10.3794 5.23239 10.2996 5.02481 10.3014C4.81724 10.3032 4.61868 10.3865 4.4719 10.5333C4.32512 10.68 4.24186 10.8786 4.24005 11.0862C4.23825 11.2937 4.31805 11.4937 4.46225 11.643L8.94071 16.1215Z" fill="currentColor"/>
</svg>