<svg width="34" height="34" viewBox="0 0 34 34" fill="none" xmlns="http://www.w3.org/2000/svg">
<mask id="mask0_576_400" style="mask-type:luminance" maskUnits="userSpaceOnUse" x="1" y="1" width="32" height="32">
<path d="M16.9997 31.1666C18.8604 31.1689 20.7033 30.8035 22.4223 30.0914C24.1414 29.3793 25.7029 28.3346 27.0169 27.0172C28.3343 25.7031 29.3791 24.1417 30.0912 22.4226C30.8033 20.7035 31.1686 18.8607 31.1664 16.9999C31.1686 15.1392 30.8033 13.2964 30.0912 11.5773C29.3791 9.85819 28.3343 8.29676 27.0169 6.98268C25.7029 5.66529 24.1414 4.62054 22.4223 3.90845C20.7033 3.19636 18.8604 2.83097 16.9997 2.83326C15.139 2.83097 13.2961 3.19636 11.577 3.90845C9.85795 4.62054 8.29652 5.66529 6.98244 6.98268C5.66505 8.29676 4.6203 9.85819 3.90821 11.5773C3.19612 13.2964 2.83072 15.1392 2.83302 16.9999C2.83072 18.8607 3.19612 20.7035 3.90821 22.4226C4.6203 24.1417 5.66505 25.7031 6.98244 27.0172C8.29652 28.3346 9.85795 29.3793 11.577 30.0914C13.2961 30.8035 15.139 31.1689 16.9997 31.1666Z" fill="white" stroke="white" stroke-width="2" stroke-linejoin="round"/>
<path d="M11.333 17L15.583 21.25L24.083 12.75" stroke="black" stroke-width="2" stroke-linecap="round" stroke-linejoin="round"/>
</mask>
<g mask="url(#mask0_576_400)">
<path d="M0 0H34V34H0V0Z" fill="#36CC75"/>
</g>
</svg>
