<svg width="28" height="28" viewBox="0 0 28 28" fill="none" xmlns="http://www.w3.org/2000/svg">
<path fill-rule="evenodd" clip-rule="evenodd" d="M4.55024 22.9482C3.35359 22.9482 2.38379 21.9783 2.38379 20.7817V10.7515L4.88044 3.2746C5.14109 2.4946 5.87104 1.96875 6.69329 1.96875H19.3072C20.1294 1.96875 20.8594 2.4946 21.12 3.2746L23.6167 10.7515V20.7817C23.6167 21.9783 22.6469 22.9482 21.4502 22.9482H4.55024Z" fill="#FFA300"/>
<path d="M18.4332 4.41333H7.56717C7.04629 4.41333 6.62402 4.83559 6.62402 5.35648V14.0229C6.62402 14.5438 7.04629 14.9661 7.56717 14.9661H18.4332C18.9541 14.9661 19.3764 14.5438 19.3764 14.0229V5.35648C19.3764 4.83559 18.9541 4.41333 18.4332 4.41333Z" fill="#D9DDE0"/>
<path d="M19.9984 7.35278H6.00198C5.4513 7.35278 5.00488 7.7992 5.00488 8.34988V19.433C5.00488 19.9837 5.4513 20.4301 6.00198 20.4301H19.9984C20.5491 20.4301 20.9955 19.9837 20.9955 19.433V8.34988C20.9955 7.7992 20.5491 7.35278 19.9984 7.35278Z" fill="white"/>
<path fill-rule="evenodd" clip-rule="evenodd" d="M23.6167 10.751H2.38379V21.0372C2.38379 22.0928 3.23919 22.9482 4.29479 22.9482H21.7063C22.7619 22.9482 23.6173 22.0928 23.6173 21.0372L23.6167 10.751Z" fill="#FFC33A"/>
</svg>
