<svg width="34" height="34" viewBox="0 0 34 34" fill="none" xmlns="http://www.w3.org/2000/svg">
<mask id="mask0_576_429" style="mask-type:luminance" maskUnits="userSpaceOnUse" x="1" y="1" width="32" height="32">
<path d="M16.9997 31.1666C18.8604 31.1689 20.7033 30.8035 22.4223 30.0914C24.1414 29.3793 25.7029 28.3346 27.0169 27.0172C28.3343 25.7031 29.3791 24.1417 30.0912 22.4226C30.8033 20.7035 31.1686 18.8607 31.1664 16.9999C31.1686 15.1392 30.8033 13.2964 30.0912 11.5773C29.3791 9.85819 28.3343 8.29676 27.0169 6.98268C25.7029 5.66529 24.1414 4.62054 22.4223 3.90845C20.7033 3.19636 18.8604 2.83097 16.9997 2.83326C15.139 2.83097 13.2961 3.19636 11.577 3.90845C9.85795 4.62054 8.29652 5.66529 6.98244 6.98268C5.66505 8.29676 4.6203 9.85819 3.90821 11.5773C3.19612 13.2964 2.83072 15.1392 2.83302 16.9999C2.83072 18.8607 3.19612 20.7035 3.90821 22.4226C4.6203 24.1417 5.66505 25.7031 6.98244 27.0172C8.29652 28.3346 9.85795 29.3793 11.577 30.0914C13.2961 30.8035 15.139 31.1689 16.9997 31.1666Z" fill="white" stroke="white" stroke-width="2" stroke-linejoin="round"/>
<path d="M11.333 17L15.583 21.25L24.083 12.75" stroke="black" stroke-width="2" stroke-linecap="round" stroke-linejoin="round"/>
</mask>
<g mask="url(#mask0_576_429)">
<path d="M0 0H34V34H0V0Z" fill="#EAEAEA"/>
</g>
<rect x="7" y="8" width="20" height="20" fill="#EAEAEA"/>
<path opacity="0.5" d="M20.667 15.7083H14.3337C14.1237 15.7083 13.9223 15.6248 13.7739 15.4764C13.6254 15.3279 13.542 15.1265 13.542 14.9166V12.5416C13.542 11.4918 13.959 10.485 14.7014 9.74262C15.4437 9.00029 16.4505 8.58325 17.5003 8.58325C18.5501 8.58325 19.557 9.00029 20.2993 9.74262C21.0416 10.485 21.4587 11.4918 21.4587 12.5416V14.9166C21.4587 15.1265 21.3753 15.3279 21.2268 15.4764C21.0783 15.6248 20.877 15.7083 20.667 15.7083ZM15.1253 14.1249H19.8753V12.5416C19.8753 11.9117 19.6251 11.3076 19.1797 10.8622C18.7343 10.4168 18.1302 10.1666 17.5003 10.1666C16.8704 10.1666 16.2663 10.4168 15.8209 10.8622C15.3755 11.3076 15.1253 11.9117 15.1253 12.5416V14.1249Z" fill="#D7D7D7"/>
<path d="M21.4587 14.125H13.542C12.2303 14.125 11.167 15.1883 11.167 16.5V22.0417C11.167 23.3533 12.2303 24.4167 13.542 24.4167H21.4587C22.7703 24.4167 23.8337 23.3533 23.8337 22.0417V16.5C23.8337 15.1883 22.7703 14.125 21.4587 14.125Z" fill="#D7D7D7"/>
</svg>
