<svg width="47" height="47" viewBox="0 0 47 47" fill="none" xmlns="http://www.w3.org/2000/svg">
<path d="M18.1244 5.60192C19.6653 4.41569 21.5554 3.77246 23.5 3.77246C25.4446 3.77246 27.3347 4.41569 28.8756 5.60192L39.1569 13.5126C40.2265 14.336 41.0926 15.3941 41.6885 16.6052C42.2844 17.8163 42.5941 19.1482 42.5938 20.498V33.7814C42.5938 36.1186 41.6653 38.3601 40.0126 40.0127C38.36 41.6654 36.1185 42.5939 33.7812 42.5939H13.2188C10.8815 42.5939 8.64004 41.6654 6.98737 40.0127C5.33471 38.3601 4.40625 36.1186 4.40625 33.7814V20.498C4.40589 19.1482 4.71561 17.8163 5.3115 16.6052C5.9074 15.3941 6.77354 14.336 7.84313 13.5126L18.1244 5.60192ZM20.5625 23.5001C18.5356 23.5001 16.8906 25.1451 16.8906 27.172V38.1876H30.1094V27.172C30.1094 25.1451 28.4644 23.5001 26.4375 23.5001H20.5625Z" fill="#BBBBBB"/>
</svg>
