<svg width="47" height="47" viewBox="0 0 47 47" fill="none" xmlns="http://www.w3.org/2000/svg">
<path d="M42.1045 10.054C42.3682 10.2063 42.5928 10.418 42.7604 10.6723C42.928 10.9266 43.034 11.2164 43.07 11.5188L43.0837 11.7499V37.2083C43.0837 37.552 42.9932 37.8897 42.8213 38.1874C42.6494 38.4851 42.4022 38.7323 42.1045 38.9042C41.8068 39.0761 41.4691 39.1666 41.1253 39.1666C40.7816 39.1665 40.4439 39.0761 40.1462 38.9042C37.9272 37.6229 35.4279 36.9054 32.8673 36.8146C30.3066 36.7238 27.7628 37.2624 25.4587 38.3833V8.66752C28.1638 7.65703 31.059 7.25733 33.9368 7.49703C36.8146 7.73673 39.6038 8.60991 42.1045 10.054ZM21.542 8.66947L21.544 38.3852C19.3306 37.3078 16.8946 36.767 14.4333 36.8068C11.972 36.8466 9.55467 37.4659 7.37737 38.6144L6.73699 38.9669L6.53528 39.053L6.43933 39.0844L6.22391 39.1353L6.10445 39.1548L5.87533 39.1666H5.79308L5.57766 39.1431L5.42687 39.1157L5.21537 39.053L4.96862 38.9433L4.78258 38.8337L4.60828 38.7025L4.49078 38.5928L4.34783 38.4322L4.22249 38.2579L4.17941 38.1874L4.11674 38.0699L4.03058 37.8682L3.99924 37.7723L3.94833 37.5568L3.92874 37.4374L3.92091 37.3414L3.91699 11.7499C3.917 11.4062 4.00749 11.0685 4.17937 10.7708C4.35125 10.4731 4.59846 10.2259 4.89616 10.054C7.39704 8.61023 10.1863 7.73739 13.0641 7.49803C15.9418 7.25866 18.8369 7.6587 21.542 8.66947Z" fill="#36CC75"/>
</svg>
